<?xml version="1.0" encoding="UTF-8" standalone="no"?>
<!-- Created with Inkscape (http://www.inkscape.org/) -->

<svg
   xmlns:dc="http://purl.org/dc/elements/1.1/"
   xmlns:cc="http://creativecommons.org/ns#"
   xmlns:rdf="http://www.w3.org/1999/02/22-rdf-syntax-ns#"
   xmlns:svg="http://www.w3.org/2000/svg"
   xmlns="http://www.w3.org/2000/svg"
   xmlns:sodipodi="http://sodipodi.sourceforge.net/DTD/sodipodi-0.dtd"
   xmlns:inkscape="http://www.inkscape.org/namespaces/inkscape"
   width="2000"
   height="2000"
   viewBox="0 0 529.16668 529.16664"
   version="1.1"
   id="svg8"
   inkscape:export-filename="C:\Users\Charlene\CS 407\TRACE\public\print.png"
   inkscape:export-xdpi="95.999992"
   inkscape:export-ydpi="95.999992"
   sodipodi:docname="fingerprint.svg"
   inkscape:version="0.92.3 (2405546, 2018-03-11)">
  <defs
     id="defs2" />
  <sodipodi:namedview
     id="base"
     pagecolor="#ffffff"
     bordercolor="#666666"
     borderopacity="1.0"
     inkscape:pageopacity="0.0"
     inkscape:pageshadow="2"
     inkscape:zoom="0.35"
     inkscape:cx="263.26611"
     inkscape:cy="1039.6263"
     inkscape:document-units="mm"
     inkscape:current-layer="layer1"
     showgrid="false"
     fit-margin-top="35"
     fit-margin-left="10"
     fit-margin-right="10"
     fit-margin-bottom="35"
     units="px"
     inkscape:window-width="1920"
     inkscape:window-height="1057"
     inkscape:window-x="-8"
     inkscape:window-y="-8"
     inkscape:window-maximized="1" />
  <metadata
     id="metadata5">
    <rdf:RDF>
      <cc:Work
         rdf:about="">
        <dc:format>image/svg+xml</dc:format>
        <dc:type
           rdf:resource="http://purl.org/dc/dcmitype/StillImage" />
        <dc:title></dc:title>
      </cc:Work>
    </rdf:RDF>
  </metadata>
  <g
     inkscape:label="Layer 1"
     inkscape:groupmode="layer"
     id="layer1"
     transform="translate(-90.221158,316.93975)">
    <path
       style="fill:#222a42;fill-opacity:1;stroke-width:1.39348435"
       d="m 344.13952,161.29457 c -29.67277,-19.76865 -51.7713,-55.11619 -61.51579,-98.397082 -2.57273,-11.427483 -3.02595,-17.729647 -3.02076,-42.010687 0.008,-41.253651 4.12626,-59.300189 17.94923,-78.671256 7.40144,-10.372206 14.20715,-16.086905 25.40659,-21.333569 6.86066,-3.214143 9.98419,-3.809812 19.97682,-3.809812 10.12194,0 12.98796,0.561489 19.70594,3.860623 13.37112,6.566331 23.07014,19.509258 28.42619,37.933433 1.99911,6.876751 2.21413,10.995064 1.30646,25.023218 -1.88801,29.179906 -1.54826,35.521327 2.35834,44.020655 4.69011,10.203993 9.68446,15.82406 17.36751,19.543401 17.93675,8.682958 40.09355,-1.532402 50.0663,-23.083009 7.86197,-16.9894222 10.59789,-58.20823 5.67916,-85.561581 -10.27908,-57.162364 -46.82869,-101.107764 -93.55657,-112.487614 -14.05939,-3.42393 -38.48604,-3.10363 -52.95233,0.69446 -46.58754,12.23139 -87.06428,52.87925 -104.4234,104.864712 -9.8998,29.646987 -15.87887,74.0134166 -13.8823,103.010648 0.7459,10.833106 0.49721,14.118442 -1.33864,17.668166 -3.96144,7.660579 -12.0576,7.72265 -14.71041,0.112951 -2.19932,-6.308892 -1.84886,-44.9301941 0.59742,-65.842896 8.27177,-70.713325 35.16732,-123.064091 80.80497,-157.282531 13.21301,-9.90697 34.93343,-20.66531 50.28629,-24.90747 15.17718,-4.19358 48.06832,-4.50875 62.58584,-0.59971 51.25904,13.80217 89.08534,58.61618 103.07571,122.117018 3.1495,14.295744 4.37082,53.127757 2.21056,70.2900665 -3.40359,27.0406165 -10.45168,44.5352705 -23.41875,58.1299365 -9.3181,9.768998 -16.84699,14.368669 -28.33754,17.31246 -26.32529,6.744192 -51.16388,-10.581404 -59.13418,-41.247727 -2.35111,-9.046064 -2.29588,-24.2959429 0.16741,-46.238203 1.43023,-12.739281 -3.27332,-26.060873 -12.42743,-35.197556 -14.9776,-14.949102 -34.84031,-13.656991 -50.12441,3.260648 -10.01657,11.087193 -13.86559,23.036504 -16.27556,50.5269065 -4.69291,53.5326315 14.6538,104.7863605 49.95378,132.3385105 17.51618,13.67163 16.89181,12.95871 16.89181,19.28768 0,5.99517 -4.62604,12.58351 -8.83557,12.58351 -1.09707,0 -5.98534,-2.65865 -10.8628,-5.90808 z m -86.23789,-23.70348 c -7.47142,-12.18283 -17.86129,-44.173608 -23.19423,-71.416061 -3.42331,-17.487262 -3.43053,-62.4408991 -0.0183,-82.912313 6.97007,-41.755276 18.4508,-67.154695 41.04324,-90.801946 21.86246,-22.88311 45.16943,-33.64565 72.77227,-33.60426 21.59384,0.0294 40.02986,7.54199 56.62373,23.06475 16.07472,15.03711 28.14618,37.338395 33.35822,61.627125 2.98353,13.903758 3.34208,43.589082 0.68917,57.05699692 C 436.35633,14.918602 430.06216,20.228696 423.58891,13.755448 420.8737,11.040209 420.73459,10.010794 421.84705,0.86568796 423.87849,-15.834141 423.17773,-42.798449 420.44801,-52.96793 c -4.56381,-17.002336 -12.87797,-31.681899 -24.48227,-43.226382 -5.79358,-5.763708 -13.71612,-12.170548 -17.60552,-14.237358 -36.44377,-19.3658 -81.85608,-2.85416 -107.32678,39.023339 -15.53138,25.53577 -22.58105,59.91429 -21.0282,102.545922 1.15925,31.826633 7.24393,57.867385 20.07134,85.899639 3.55631,7.77183 4.59223,11.65644 4.04064,15.15274 -1.6469,10.44032 -11.18278,13.61558 -16.22054,5.40112 z M 394.77559,125.3672 C 374.14994,119.96362 359.05433,108.92993 346.57908,90.139257 334.66402,72.192379 328.8565,55.288463 325.97117,30.155751 c -1.75588,-15.294508 0.16188,-40.667437 3.71698,-49.175853 2.41071,-5.769703 7.44456,-8.437996 11.66123,-6.181264 4.12816,2.209308 4.99128,7.194231 3.16284,18.2661917 -4.97902,30.1490543 2.08577,62.7449943 18.26182,84.2580323 12.56985,16.717053 29.3588,25.603542 52.62274,27.853442 6.1713,0.59688 11.44979,1.89421 12.88977,3.16808 3.4076,3.01464 3.16985,11.56783 -0.44924,16.16901 -2.65365,3.37357 -3.70016,3.66546 -12.8898,3.59499 -5.50085,-0.0442 -14.57808,-1.27574 -20.17163,-2.74118 z m 115.12335,-226.75873 c -1.14413,-1.34123 -3.81488,-7.45512 -5.93501,-13.58646 -20.2692,-58.61819 -59.9642,-98.47309 -112.52611,-112.97934 -15.77733,-4.35422 -44.73704,-6.0164 -61.04358,-3.50357 -23.25491,3.58357 -48.18202,13.77573 -69.60739,28.46092 -5.77746,3.95997 -18.54781,15.01611 -28.3785,24.56935 -17.68977,17.19035 -17.91147,17.34841 -21.50652,15.32833 -4.32939,-2.43271 -5.8856,-7.351 -4.26563,-13.48113 1.55258,-5.87492 25.68461,-30.24467 42.03463,-42.44876 43.83117,-32.7165 97.41257,-44.37022 146.40009,-31.84134 40.05664,10.24478 75.2957,35.89871 100.20347,72.94794 13.03438,19.38808 28.81419,56.19032 28.81419,67.2015 0,9.02789 -9.25629,15.11577 -14.18964,9.33256 z M 477.3958,-243.15627 c -29.23815,-26.05169 -52.95747,-38.10593 -87.95406,-44.69833 -18.21665,-3.4316 -50.64098,-2.14274 -69.15964,2.74895 -7.47771,1.97526 -17.46215,5.16238 -22.18765,7.08252 -4.72547,1.92013 -9.69296,3.49113 -11.03892,3.49113 -4.21228,0 -6.82672,-3.9931 -6.82672,-10.42676 0,-8.29825 4.23528,-11.5535 23.24938,-17.8698 22.02247,-7.31563 37.92203,-9.83843 61.75318,-9.7984 16.69266,0.0265 22.87043,0.65523 35.53386,3.60785 32.25021,7.51938 55.38962,19.01103 80.32019,39.88915 21.53191,18.0318 24.73138,23.18343 19.87982,32.01016 -5.01847,9.1304 -7.16427,8.58085 -23.56944,-6.03647 z"
       id="path826"
       inkscape:connector-curvature="0"
       inkscape:export-xdpi="95.999992"
       inkscape:export-ydpi="95.999992" />
  </g>
</svg>
