<?xml version="1.0" encoding="UTF-8" standalone="no"?>
<svg
   xmlns:dc="http://purl.org/dc/elements/1.1/"
   xmlns:cc="http://creativecommons.org/ns#"
   xmlns:rdf="http://www.w3.org/1999/02/22-rdf-syntax-ns#"
   xmlns:svg="http://www.w3.org/2000/svg"
   xmlns="http://www.w3.org/2000/svg"
   xmlns:sodipodi="http://sodipodi.sourceforge.net/DTD/sodipodi-0.dtd"
   xmlns:inkscape="http://www.inkscape.org/namespaces/inkscape"
   version="1.1"
   id="Capa_1"
   x="0px"
   y="0px"
   viewBox="0 0 3613.3353 940.62821"
   xml:space="preserve"
   sodipodi:docname="logo-wide.svg"
   inkscape:export-filename="D:\dev\repos\TRACE\docs\images\logo-small.png"
   inkscape:export-xdpi="558.13953"
   inkscape:export-ydpi="558.13953"
   inkscape:version="0.92.3 (2405546, 2018-03-11)"
   width="3613.3352"
   height="940.62817"><metadata
   id="metadata41"><rdf:RDF><cc:Work
       rdf:about=""><dc:format>image/svg+xml</dc:format><dc:type
         rdf:resource="http://purl.org/dc/dcmitype/StillImage" /><dc:title></dc:title></cc:Work></rdf:RDF></metadata><defs
   id="defs39"><clipPath
     clipPathUnits="userSpaceOnUse"
     id="clipPath5762"><g
       style="display:inline;fill:#ff00ff"
       transform="matrix(0.04928134,0,0,0.04928134,-4.585241,16.483358)"
       id="g5766"
       inkscape:label="Layer 1"><path
         inkscape:export-ydpi="95.999992"
         inkscape:export-xdpi="95.999992"
         inkscape:connector-curvature="0"
         id="path5764"
         d="m 344.13952,161.29457 c -29.67277,-19.76865 -51.7713,-55.11619 -61.51579,-98.397082 -2.57273,-11.427483 -3.02595,-17.729647 -3.02076,-42.010687 0.008,-41.253651 4.12626,-59.300189 17.94923,-78.671256 7.40144,-10.372206 14.20715,-16.086905 25.40659,-21.333569 6.86066,-3.214143 9.98419,-3.809812 19.97682,-3.809812 10.12194,0 12.98796,0.561489 19.70594,3.860623 13.37112,6.566331 23.07014,19.509258 28.42619,37.933433 1.99911,6.876751 2.21413,10.995064 1.30646,25.023218 -1.88801,29.179906 -1.54826,35.521327 2.35834,44.020655 4.69011,10.203993 9.68446,15.82406 17.36751,19.543401 17.93675,8.682958 40.09355,-1.532402 50.0663,-23.083009 7.86197,-16.9894222 10.59789,-58.20823 5.67916,-85.561581 -10.27908,-57.162364 -46.82869,-101.107764 -93.55657,-112.487614 -14.05939,-3.42393 -38.48604,-3.10363 -52.95233,0.69446 -46.58754,12.23139 -87.06428,52.87925 -104.4234,104.864712 -9.8998,29.646987 -15.87887,74.0134166 -13.8823,103.010648 0.7459,10.833106 0.49721,14.118442 -1.33864,17.668166 -3.96144,7.660579 -12.0576,7.72265 -14.71041,0.112951 -2.19932,-6.308892 -1.84886,-44.9301941 0.59742,-65.842896 8.27177,-70.713325 35.16732,-123.064091 80.80497,-157.282531 13.21301,-9.90697 34.93343,-20.66531 50.28629,-24.90747 15.17718,-4.19358 48.06832,-4.50875 62.58584,-0.59971 51.25904,13.80217 89.08534,58.61618 103.07571,122.117018 3.1495,14.295744 4.37082,53.127757 2.21056,70.2900665 -3.40359,27.0406165 -10.45168,44.5352705 -23.41875,58.1299365 -9.3181,9.768998 -16.84699,14.368669 -28.33754,17.31246 -26.32529,6.744192 -51.16388,-10.581404 -59.13418,-41.247727 -2.35111,-9.046064 -2.29588,-24.2959429 0.16741,-46.238203 1.43023,-12.739281 -3.27332,-26.060873 -12.42743,-35.197556 -14.9776,-14.949102 -34.84031,-13.656991 -50.12441,3.260648 -10.01657,11.087193 -13.86559,23.036504 -16.27556,50.5269065 -4.69291,53.5326315 14.6538,104.7863605 49.95378,132.3385105 17.51618,13.67163 16.89181,12.95871 16.89181,19.28768 0,5.99517 -4.62604,12.58351 -8.83557,12.58351 -1.09707,0 -5.98534,-2.65865 -10.8628,-5.90808 z m -86.23789,-23.70348 c -7.47142,-12.18283 -17.86129,-44.173608 -23.19423,-71.416061 -3.42331,-17.487262 -3.43053,-62.4408991 -0.0183,-82.912313 6.97007,-41.755276 18.4508,-67.154695 41.04324,-90.801946 21.86246,-22.88311 45.16943,-33.64565 72.77227,-33.60426 21.59384,0.0294 40.02986,7.54199 56.62373,23.06475 16.07472,15.03711 28.14618,37.338395 33.35822,61.627125 2.98353,13.903758 3.34208,43.589082 0.68917,57.05699692 C 436.35633,14.918602 430.06216,20.228696 423.58891,13.755448 420.8737,11.040209 420.73459,10.010794 421.84705,0.86568796 423.87849,-15.834141 423.17773,-42.798449 420.44801,-52.96793 c -4.56381,-17.002336 -12.87797,-31.681899 -24.48227,-43.226382 -5.79358,-5.763708 -13.71612,-12.170548 -17.60552,-14.237358 -36.44377,-19.3658 -81.85608,-2.85416 -107.32678,39.023339 -15.53138,25.53577 -22.58105,59.91429 -21.0282,102.545922 1.15925,31.826633 7.24393,57.867385 20.07134,85.899639 3.55631,7.77183 4.59223,11.65644 4.04064,15.15274 -1.6469,10.44032 -11.18278,13.61558 -16.22054,5.40112 z M 394.77559,125.3672 C 374.14994,119.96362 359.05433,108.92993 346.57908,90.139257 334.66402,72.192379 328.8565,55.288463 325.97117,30.155751 c -1.75588,-15.294508 0.16188,-40.667437 3.71698,-49.175853 2.41071,-5.769703 7.44456,-8.437996 11.66123,-6.181264 4.12816,2.209308 4.99128,7.194231 3.16284,18.2661917 -4.97902,30.1490543 2.08577,62.7449943 18.26182,84.2580323 12.56985,16.717053 29.3588,25.603542 52.62274,27.853442 6.1713,0.59688 11.44979,1.89421 12.88977,3.16808 3.4076,3.01464 3.16985,11.56783 -0.44924,16.16901 -2.65365,3.37357 -3.70016,3.66546 -12.8898,3.59499 -5.50085,-0.0442 -14.57808,-1.27574 -20.17163,-2.74118 z m 115.12335,-226.75873 c -1.14413,-1.34123 -3.81488,-7.45512 -5.93501,-13.58646 -20.2692,-58.61819 -59.9642,-98.47309 -112.52611,-112.97934 -15.77733,-4.35422 -44.73704,-6.0164 -61.04358,-3.50357 -23.25491,3.58357 -48.18202,13.77573 -69.60739,28.46092 -5.77746,3.95997 -18.54781,15.01611 -28.3785,24.56935 -17.68977,17.19035 -17.91147,17.34841 -21.50652,15.32833 -4.32939,-2.43271 -5.8856,-7.351 -4.26563,-13.48113 1.55258,-5.87492 25.68461,-30.24467 42.03463,-42.44876 43.83117,-32.7165 97.41257,-44.37022 146.40009,-31.84134 40.05664,10.24478 75.2957,35.89871 100.20347,72.94794 13.03438,19.38808 28.81419,56.19032 28.81419,67.2015 0,9.02789 -9.25629,15.11577 -14.18964,9.33256 z M 477.3958,-243.15627 c -29.23815,-26.05169 -52.95747,-38.10593 -87.95406,-44.69833 -18.21665,-3.4316 -50.64098,-2.14274 -69.15964,2.74895 -7.47771,1.97526 -17.46215,5.16238 -22.18765,7.08252 -4.72547,1.92013 -9.69296,3.49113 -11.03892,3.49113 -4.21228,0 -6.82672,-3.9931 -6.82672,-10.42676 0,-8.29825 4.23528,-11.5535 23.24938,-17.8698 22.02247,-7.31563 37.92203,-9.83843 61.75318,-9.7984 16.69266,0.0265 22.87043,0.65523 35.53386,3.60785 32.25021,7.51938 55.38962,19.01103 80.32019,39.88915 21.53191,18.0318 24.73138,23.18343 19.87982,32.01016 -5.01847,9.1304 -7.16427,8.58085 -23.56944,-6.03647 z"
         style="fill:#ff00ff;fill-opacity:1;stroke-width:1.39348435" /></g></clipPath><clipPath
     clipPathUnits="userSpaceOnUse"
     id="clipPath6499"><text
       xml:space="preserve"
       style="font-style:normal;font-weight:normal;font-size:17.40644646px;line-height:1.25;font-family:sans-serif;letter-spacing:-0.18649755px;word-spacing:0px;display:inline;fill:#000000;fill-opacity:1;stroke:none;stroke-width:2.33121943"
       x="-13.353073"
       y="19.85331"
       id="text6503"><tspan
         sodipodi:role="line"
         id="tspan6501"
         x="-13.353073"
         y="19.85331"
         style="font-style:normal;font-variant:normal;font-weight:bold;font-stretch:normal;font-size:17.40644646px;font-family:'Lucida Sans Typewriter';-inkscape-font-specification:'Lucida Sans Typewriter';stroke-width:2.33121943">TRACE</tspan></text>
</clipPath></defs><sodipodi:namedview
   pagecolor="#ffffff"
   bordercolor="#666666"
   borderopacity="1"
   objecttolerance="10"
   gridtolerance="10"
   guidetolerance="10"
   inkscape:pageopacity="0"
   inkscape:pageshadow="2"
   inkscape:window-width="1920"
   inkscape:window-height="1057"
   id="namedview37"
   showgrid="false"
   inkscape:zoom="0.16"
   inkscape:cx="1812.4037"
   inkscape:cy="-286.91102"
   inkscape:window-x="-8"
   inkscape:window-y="-8"
   inkscape:window-maximized="1"
   inkscape:current-layer="layer1"
   inkscape:document-rotation="0"
   fit-margin-top="0"
   fit-margin-left="0"
   fit-margin-right="0"
   fit-margin-bottom="0" />

<g
   inkscape:groupmode="layer"
   id="layer6"
   inkscape:label="Fingerprint Shadow"
   style="display:inline"
   transform="translate(171.77871,3246.2962)" /><g
   inkscape:groupmode="layer"
   id="layer2"
   inkscape:label="Foot"
   style="display:inline"
   transform="translate(171.77871,3246.2962)"><text
     xml:space="preserve"
     style="font-style:normal;font-variant:normal;font-weight:normal;font-stretch:normal;font-size:2666.66674805px;line-height:1.25;font-family:'Lucida Console';-inkscape-font-specification:'Lucida Console';letter-spacing:0px;word-spacing:0px;fill:#000000;fill-opacity:1;stroke:none"
     x="4262.5"
     y="-261.70001"
     id="text6543"><tspan
       sodipodi:role="line"
       id="tspan6541"
       x="4262.5"
       y="2184.9404"></tspan></text>
</g><g
   inkscape:groupmode="layer"
   id="layer4"
   inkscape:label="Text Shadow"
   style="display:inline"
   transform="translate(171.77871,3246.2962)" /><g
   inkscape:groupmode="layer"
   id="layer3"
   inkscape:label="Text"
   style="display:inline"
   transform="translate(171.77871,3246.2962)"><text
     xml:space="preserve"
     style="font-style:normal;font-variant:normal;font-weight:normal;font-stretch:normal;font-size:2666.66674805px;line-height:1.25;font-family:'Lucida Console';-inkscape-font-specification:'Lucida Console';letter-spacing:0px;word-spacing:0px;fill:#000000;fill-opacity:1;stroke:none"
     x="4668.75"
     y="-2036.7"
     id="text6539"><tspan
       sodipodi:role="line"
       id="tspan6537"
       x="4668.75"
       y="409.94043"></tspan></text>
</g><g
   inkscape:groupmode="layer"
   id="layer1"
   inkscape:label="Mask"
   style="display:inline"
   transform="translate(171.77871,3246.2962)"><g
     id="g6643"><path
       clip-path="none"
       inkscape:export-ydpi="95.999992"
       inkscape:export-xdpi="95.999992"
       inkscape:connector-curvature="0"
       id="path826-63-1-7"
       d="m 2496.519,-2472.7824 c -38.0929,-25.3784 -66.4623,-70.7562 -78.9719,-126.3186 -3.3029,-14.6703 -3.8844,-22.7608 -3.8781,-53.932 0.01,-52.9601 5.2971,-76.1276 23.0426,-100.9954 9.5017,-13.3155 18.2387,-20.6518 32.6161,-27.3873 8.8075,-4.1262 12.8174,-4.8909 25.6456,-4.8909 12.9942,0 16.6735,0.7202 25.2978,4.9561 17.1653,8.4297 29.6166,25.0453 36.4925,48.6976 2.5663,8.8282 2.8423,14.1151 1.6769,32.124 -2.4235,37.4601 -1.9876,45.601 3.0277,56.5122 6.0209,13.0995 12.4325,20.3144 22.2958,25.0891 23.0266,11.1469 51.4707,-1.9673 64.2733,-29.6332 10.093,-21.8104 13.6053,-74.7257 7.2908,-109.841 -13.1959,-73.383 -60.117,-129.7986 -120.1046,-144.4076 -18.0489,-4.3956 -49.407,-3.9844 -67.9783,0.8913 -59.8075,15.7023 -111.7702,67.8846 -134.0551,134.6216 -12.7091,38.0599 -20.3847,95.0159 -17.8217,132.2416 0.9575,13.9071 0.6381,18.1249 -1.7186,22.6819 -5.0856,9.8343 -15.4792,9.914 -18.8848,0.147 -2.8232,-8.1 -2.3734,-57.6807 0.7669,-84.5276 10.619,-90.7793 45.1466,-157.9855 103.7347,-201.914 16.9623,-12.7182 44.8462,-26.5294 64.5557,-31.9753 19.4839,-5.3836 61.7085,-5.7882 80.3455,-0.77 65.8046,17.7187 114.3646,75.2493 132.325,156.7694 4.0433,18.3524 5.6111,68.2036 2.838,90.236 -4.3695,34.7138 -13.4175,57.1728 -30.0642,74.6252 -11.9622,12.5412 -21.6276,18.4461 -36.3787,22.2251 -33.7955,8.658 -65.6824,-13.584 -75.9144,-52.9524 -3.0182,-11.613 -2.9474,-31.1904 0.2145,-59.3589 1.836,-16.3542 -4.2022,-33.4561 -15.9538,-45.1854 -19.2278,-19.1912 -44.7269,-17.5325 -64.3481,4.1858 -12.8588,14.2333 -17.8001,29.5735 -20.8939,64.8648 -6.0247,68.7232 18.8121,134.521 64.1289,169.8914 22.4867,17.5513 21.6851,16.636 21.6851,24.7609 0,7.6964 -5.9387,16.1542 -11.3428,16.1542 -1.4081,0 -7.6837,-3.413 -13.9453,-7.5845 z m -110.7093,-30.4297 c -9.5915,-15.64 -22.9296,-56.7086 -29.7758,-91.6814 -4.3949,-22.4496 -4.404,-80.1594 -0.026,-106.44 8.9479,-53.604 23.6865,-86.2108 52.6899,-116.5683 28.0662,-29.3767 57.9869,-43.1932 93.4225,-43.1401 27.7214,0.039 51.3889,9.6822 72.6916,29.6098 20.6361,19.3041 36.1331,47.9338 42.8241,79.1147 3.8303,17.8492 4.2904,55.9582 0.8845,73.2478 -3.6196,18.3748 -11.6997,25.1917 -20.0097,16.8817 -3.4856,-3.486 -3.6646,-4.8072 -2.2363,-16.5474 2.6082,-21.4387 1.7085,-56.0545 -1.7962,-69.1099 -5.8587,-21.8269 -16.5321,-40.672 -31.4294,-55.4926 -7.4376,-7.3991 -17.6082,-15.624 -22.6012,-18.2773 -46.7853,-24.8612 -105.0841,-3.6641 -137.7824,50.0969 -19.9387,32.7819 -28.9889,76.9158 -26.9954,131.6448 1.4881,40.858 9.2995,74.2881 25.7669,110.275 4.5655,9.977 5.8954,14.964 5.1872,19.4526 -2.1141,13.4028 -14.3561,17.4791 -20.8233,6.9337 z m 175.7141,-15.6927 c -26.4785,-6.9367 -45.8577,-21.1015 -61.8731,-45.2243 -15.296,-23.0396 -22.7515,-44.7402 -26.4557,-77.0047 -2.2541,-19.6345 0.207,-52.2075 4.7718,-63.1302 3.0949,-7.407 9.557,-10.8326 14.9702,-7.9354 5.2996,2.8365 6.4076,9.2357 4.0604,23.4496 -6.3918,38.7043 2.6777,80.5498 23.4439,108.1675 16.1368,21.4607 37.6898,32.8689 67.5552,35.7572 7.9225,0.7665 14.6989,2.432 16.5475,4.0671 4.3746,3.8702 4.0693,14.8504 -0.5768,20.7571 -3.4067,4.331 -4.7502,4.7057 -16.5475,4.6152 -7.0618,-0.059 -18.7148,-1.6376 -25.8956,-3.5189 z m 147.7913,-291.1048 c -1.4685,-1.7219 -4.8974,-9.5707 -7.6191,-17.4418 -26.021,-75.252 -76.9799,-126.4164 -144.4571,-145.0391 -20.2544,-5.5898 -57.4319,-7.7236 -78.3656,-4.4977 -29.8539,4.6004 -61.8545,17.6848 -89.3596,36.5371 -7.4169,5.0837 -23.8111,19.2771 -36.4314,31.5413 -22.7094,22.0684 -22.9941,22.2713 -27.6093,19.678 -5.5579,-3.1232 -7.5557,-9.4369 -5.476,-17.3066 1.9931,-7.542 32.973,-38.827 53.9626,-54.4943 56.2689,-42.0003 125.0548,-56.9609 187.9432,-40.8767 51.4234,13.1518 96.662,46.0855 128.6378,93.648 16.7331,24.8897 36.9907,72.1352 36.9907,86.271 0,11.5896 -11.883,19.405 -18.2162,11.9808 z m -41.7264,-181.9927 c -37.5349,-33.4442 -67.985,-48.9192 -112.9123,-57.3822 -23.3859,-4.4053 -65.0112,-2.7509 -88.7848,3.5289 -9.5996,2.5357 -22.4173,6.6273 -28.4837,9.0923 -6.0664,2.4652 -12.4435,4.4818 -14.1714,4.4818 -5.4076,0 -8.7639,-5.1263 -8.7639,-13.3856 0,-10.653 5.437,-14.832 29.8468,-22.9406 28.2717,-9.3915 48.683,-12.6302 79.2766,-12.5788 21.4294,0.034 29.3602,0.8412 45.617,4.6316 41.4018,9.6531 71.1073,24.4057 103.1124,51.2083 27.6419,23.1486 31.7492,29.7621 25.5209,41.0935 -6.4425,11.7213 -9.1972,11.0159 -30.2576,-7.7494 z"
       style="display:inline;fill:#258dda;fill-opacity:1;stroke-width:1.78890693" /><text
       xml:space="preserve"
       style="font-style:normal;font-weight:normal;font-size:1238.05041504px;line-height:1.25;font-family:sans-serif;letter-spacing:-13.26481915px;word-spacing:0px;display:inline;fill:#000000;fill-opacity:1;stroke:none;stroke-width:165.8102417"
       x="-186.89163"
       y="-2328.6396"
       id="text6503-3"><tspan
         sodipodi:role="line"
         id="tspan6501-1"
         x="-186.89163"
         y="-2328.6396"
         style="font-style:normal;font-variant:normal;font-weight:bold;font-stretch:normal;font-size:1238.05041504px;font-family:'Lucida Sans Typewriter';-inkscape-font-specification:'Lucida Sans Typewriter';stroke-width:165.8102417">TRACE</tspan></text>
</g></g><g
   id="g6"
   transform="translate(171.77871,3246.2962)">
</g>
<g
   id="g8"
   transform="translate(171.77871,3246.2962)">
</g>
<g
   id="g10"
   transform="translate(171.77871,3246.2962)">
</g>
<g
   id="g12"
   transform="translate(171.77871,3246.2962)">
</g>
<g
   id="g14"
   transform="translate(171.77871,3246.2962)">
</g>
<g
   id="g16"
   transform="translate(171.77871,3246.2962)">
</g>
<g
   id="g18"
   transform="translate(171.77871,3246.2962)">
</g>
<g
   id="g20"
   transform="translate(171.77871,3246.2962)">
</g>
<g
   id="g22"
   transform="translate(171.77871,3246.2962)">
</g>
<g
   id="g24"
   transform="translate(171.77871,3246.2962)">
</g>
<g
   id="g26"
   transform="translate(171.77871,3246.2962)">
</g>
<g
   id="g28"
   transform="translate(171.77871,3246.2962)">
</g>
<g
   id="g30"
   transform="translate(171.77871,3246.2962)">
</g>
<g
   id="g32"
   transform="translate(171.77871,3246.2962)">
</g>
<g
   id="g34"
   transform="translate(171.77871,3246.2962)">
</g>
</svg>