<?xml version="1.0" encoding="UTF-8" standalone="no"?>
<svg
   xmlns:dc="http://purl.org/dc/elements/1.1/"
   xmlns:cc="http://creativecommons.org/ns#"
   xmlns:rdf="http://www.w3.org/1999/02/22-rdf-syntax-ns#"
   xmlns:svg="http://www.w3.org/2000/svg"
   xmlns="http://www.w3.org/2000/svg"
   xmlns:sodipodi="http://sodipodi.sourceforge.net/DTD/sodipodi-0.dtd"
   xmlns:inkscape="http://www.inkscape.org/namespaces/inkscape"
   version="1.1"
   id="Capa_1"
   x="0px"
   y="0px"
   viewBox="0 0 25.8 25.8"
   style="enable-background:new 0 0 25.8 25.8;"
   xml:space="preserve"
   sodipodi:docname="logo-icon.svg"
   inkscape:export-filename="C:\Users\Charlene\CS 407\TRACE\docs\images\favicon.png"
   inkscape:export-xdpi="558.13953"
   inkscape:export-ydpi="558.13953"
   inkscape:version="0.92.3 (2405546, 2018-03-11)"><metadata
   id="metadata41"><rdf:RDF><cc:Work
       rdf:about=""><dc:format>image/svg+xml</dc:format><dc:type
         rdf:resource="http://purl.org/dc/dcmitype/StillImage" /><dc:title></dc:title></cc:Work></rdf:RDF></metadata><defs
   id="defs39"><clipPath
     clipPathUnits="userSpaceOnUse"
     id="clipPath145"><g
       id="g149"
       transform="matrix(1,0,0,0.91415959,6.1921777,1.1071341)"
       style="display:inline"><path
         style="fill:#030104"
         d="m 9.7961171,4.37 c 0.121,-0.606 0.5559999,-1.034 0.9749999,-0.952 0.419,0.077 0.66,0.632 0.54,1.24 -0.121,0.606 -0.557,1.033 -0.975,0.953 C 9.9191171,5.53 9.6741171,4.977 9.7961171,4.37 Z m 2.0379999,2.46 c 0.348,-0.007 0.617,-0.421 0.605,-0.921 -0.011,-0.504 -0.3,-0.902 -0.646,-0.896 -0.347,0.008 -0.617,0.422 -0.606,0.924 0.012,0.503 0.303,0.902 0.647,0.893 z M 8.7111171,4.865 c 0.525,-0.001 0.949,-0.632 0.949,-1.407 0,-0.777 -0.426,-1.408 -0.95,-1.407 -0.523,-0.001 -0.947,0.629 -0.948,1.406 -0.001,0.776 0.425,1.407 0.949,1.408 z m -3.812,1.148 c -1.079,0 -3.11,0.266 -3.11,2.595 0,3.374 4.094,3.347 4.094,7.062 0,2.969 -3.193,3.352 -3.08,6.722 0.061,1.812 0.768,3.408 3.705,3.408 2.002,0 3.156,-1.914 3.156,-3.643 0,-4.706 3.1089999,-6.115 2.9559999,-10.707 -0.154,-4.592 -5.7039999,-5.437 -7.7209999,-5.437 z m -2.085,-1.201 c 0.89,-0.141 1.441,-1.33 1.236,-2.653 -0.207,-1.324 -1.094,-2.285 -1.982,-2.145 -0.888,0.14 -1.441,1.33 -1.235,2.654 0.207,1.325 1.092,2.285 1.981,2.144 z m 3.35,-0.348 c 0.646,-0.063 1.094,-0.869 1.002,-1.805 -0.091,-0.937 -0.688,-1.644 -1.334,-1.581 -0.646,0.063 -1.092,0.87 -1.003,1.805 0.093,0.935 0.69,1.642 1.335,1.581 z"
         id="path147" /></g></clipPath></defs><sodipodi:namedview
   pagecolor="#ffffff"
   bordercolor="#666666"
   borderopacity="1"
   objecttolerance="10"
   gridtolerance="10"
   guidetolerance="10"
   inkscape:pageopacity="0"
   inkscape:pageshadow="2"
   inkscape:window-width="1920"
   inkscape:window-height="1057"
   id="namedview37"
   showgrid="false"
   inkscape:zoom="23.570227"
   inkscape:cx="12.390883"
   inkscape:cy="16.851793"
   inkscape:window-x="-8"
   inkscape:window-y="-8"
   inkscape:window-maximized="1"
   inkscape:current-layer="layer3"
   inkscape:document-rotation="0"
   inkscape:measure-start="0,0"
   inkscape:measure-end="0,0" />

<g
   inkscape:groupmode="layer"
   id="layer2"
   inkscape:label="Foot"
   style="display:inline"><g
     id="g4"
     transform="matrix(1,0,0,0.91415959,0.04242641,1.1071341)">
	<path
   style="fill:#030104"
   d="m 15.988,4.37 c 0.121,-0.606 0.556,-1.034 0.975,-0.952 0.419,0.077 0.66,0.632 0.54,1.24 C 17.382,5.264 16.946,5.691 16.528,5.611 16.111,5.53 15.866,4.977 15.988,4.37 Z m 2.038,2.46 C 18.374,6.823 18.643,6.409 18.631,5.909 18.62,5.405 18.331,5.007 17.985,5.013 17.638,5.021 17.368,5.435 17.379,5.937 17.391,6.44 17.682,6.839 18.026,6.83 Z M 14.903,4.865 c 0.525,-0.001 0.949,-0.632 0.949,-1.407 0,-0.777 -0.426,-1.408 -0.95,-1.407 -0.523,-0.001 -0.947,0.629 -0.948,1.406 -0.001,0.776 0.425,1.407 0.949,1.408 z m -3.812,1.148 c -1.079,0 -3.11,0.266 -3.11,2.595 0,3.374 4.094,3.347 4.094,7.062 0,2.969 -3.193,3.352 -3.08,6.722 0.061,1.812 0.768,3.408 3.705,3.408 2.002,0 3.156,-1.914 3.156,-3.643 0,-4.706 3.109,-6.115 2.956,-10.707 C 18.658,6.858 13.108,6.013 11.091,6.013 Z M 9.006,4.812 C 9.896,4.671 10.447,3.482 10.242,2.159 10.035,0.835 9.148,-0.126 8.26,0.014 7.372,0.154 6.819,1.344 7.025,2.668 7.232,3.993 8.117,4.953 9.006,4.812 Z m 3.35,-0.348 C 13.002,4.401 13.45,3.595 13.358,2.659 13.267,1.722 12.67,1.015 12.024,1.078 c -0.646,0.063 -1.092,0.87 -1.003,1.805 0.093,0.935 0.69,1.642 1.335,1.581 z"
   id="path2" />
</g></g><g
   inkscape:groupmode="layer"
   id="layer3"
   inkscape:label="Text"
   style="display:inline" /><g
   inkscape:groupmode="layer"
   id="layer1"
   inkscape:label="Mask"
   style="display:inline" /><g
   id="g6">
</g>
<g
   id="g8">
</g>
<g
   id="g10">
</g>
<g
   id="g12">
</g>
<g
   id="g14">
</g>
<g
   id="g16">
</g>
<g
   id="g18">
</g>
<g
   id="g20">
</g>
<g
   id="g22">
</g>
<g
   id="g24">
</g>
<g
   id="g26">
</g>
<g
   id="g28">
</g>
<g
   id="g30">
</g>
<g
   id="g32">
</g>
<g
   id="g34">
</g>
</svg>